<?xml version="1.0" encoding="UTF-8" standalone="no"?>
<svg
   xmlns:dc="http://purl.org/dc/elements/1.1/"
   xmlns:cc="http://creativecommons.org/ns#"
   xmlns:rdf="http://www.w3.org/1999/02/22-rdf-syntax-ns#"
   xmlns:svg="http://www.w3.org/2000/svg"
   xmlns="http://www.w3.org/2000/svg"
   xmlns:sodipodi="http://sodipodi.sourceforge.net/DTD/sodipodi-0.dtd"
   xmlns:inkscape="http://www.inkscape.org/namespaces/inkscape"
   width="175"
   height="30"
   viewBox="0 0 175 19"
   fill="none"
   version="1.1"
   id="svg6"
   sodipodi:docname="logo.svg"
   inkscape:version="0.92.4 (5da689c313, 2019-01-14)">
  <metadata
     id="metadata12">
    <rdf:RDF>
      <cc:Work
         rdf:about="">
        <dc:format>image/svg+xml</dc:format>
        <dc:type
           rdf:resource="http://purl.org/dc/dcmitype/StillImage" />
        <dc:title></dc:title>
      </cc:Work>
    </rdf:RDF>
  </metadata>
  <defs
     id="defs10" />
  <sodipodi:namedview
     pagecolor="#ffffff"
     bordercolor="#666666"
     borderopacity="1"
     objecttolerance="10"
     gridtolerance="10"
     guidetolerance="10"
     inkscape:pageopacity="0"
     inkscape:pageshadow="2"
     inkscape:window-width="2560"
     inkscape:window-height="1335"
     id="namedview8"
     showgrid="false"
     inkscape:zoom="4.3072904"
     inkscape:cx="25.711737"
     inkscape:cy="15"
     inkscape:window-x="-13"
     inkscape:window-y="-13"
     inkscape:window-maximized="1"
     inkscape:current-layer="svg6" />
  <path
     d="m 89.7566,18 -3.504,-6.36 h -0.984 V 18 h -4.104 V 1.152 h 6.888 c 1.328,0 2.456,0.232 3.384,0.696 0.944,0.464 1.648,1.104 2.112,1.92 0.464,0.8 0.696,1.696 0.696,2.688 0,1.12 -0.32,2.12 -0.96,3 -0.624,0.88 -1.552,1.504 -2.784,1.872 L 94.3886,18 Z"
     id="path3745" />
  <path
     d="m 85.2686,8.736 h 2.544 c 0.752,0 1.312,-0.184 1.68,-0.552 0.384,-0.368 0.576,-0.888 0.576,-1.56 0,-0.64 -0.192,-1.144 -0.576,-1.512 -0.368,-0.368 -0.928,-0.552 -1.68,-0.552 h -2.544 z"
     id="path3743" />
  <path
     d="m 107.717,18.192 c -1.312,0 -2.496,-0.28 -3.552,-0.84 -1.04,-0.56 -1.864,-1.36 -2.472,-2.4 -0.592,-1.04 -0.888,-2.256 -0.888,-3.648 0,-1.376 0.304,-2.584 0.912,-3.624 0.608,-1.056 1.44,-1.864 2.496,-2.424 1.056,-0.56 2.24,-0.84 3.552,-0.84 1.312,0 2.496,0.28 3.552,0.84 1.056,0.56 1.888,1.368 2.496,2.424 0.608,1.04 0.912,2.248 0.912,3.624 0,1.376 -0.312,2.592 -0.936,3.648 -0.608,1.04 -1.448,1.84 -2.52,2.4 -1.056,0.56 -2.24,0.84 -3.552,0.84 z"
     id="path3741" />
  <path
     d="m 107.717,14.64 c 0.784,0 1.448,-0.288 1.992,-0.864 0.56,-0.576 0.84,-1.4 0.84,-2.472 0,-1.072 -0.272,-1.896 -0.816,-2.472 -0.528,-0.576 -1.184,-0.864 -1.968,-0.864 -0.8,0 -1.464,0.288 -1.992,0.864 -0.528,0.56 -0.792,1.384 -0.792,2.472 0,1.072 0.256,1.896 0.768,2.472 0.528,0.576 1.184,0.864 1.968,0.864 z"
     id="path3739" />
  <path
     d="m 120.886,11.28 c 0,-1.376 0.256,-2.584 0.768,-3.624 0.528,-1.04 1.24,-1.84 2.136,-2.4 0.896,-0.56 1.896,-0.84 3,-0.84 0.944,0 1.768,0.192 2.472,0.576 0.72,0.384 1.272,0.888 1.656,1.512 V 4.608 h 4.104 V 18 h -4.104 v -1.896 c -0.4,0.624 -0.96,1.128 -1.68,1.512 -0.704,0.384 -1.528,0.576 -2.472,0.576 -1.088,0 -2.08,-0.28 -2.976,-0.84 -0.896,-0.576 -1.608,-1.384 -2.136,-2.424 -0.512,-1.056 -0.768,-2.272 -0.768,-3.648 z"
     id="path3737" />
  <path
     d="m 130.918,11.304 c 0,-1.024 -0.288,-1.832 -0.864,-2.424 -0.56,-0.592 -1.248,-0.888 -2.064,-0.888 -0.816,0 -1.512,0.296 -2.088,0.888 -0.56,0.576 -0.84,1.376 -0.84,2.4 0,1.024 0.28,1.84 0.84,2.448 0.576,0.592 1.272,0.888 2.088,0.888 0.816,0 1.504,-0.296 2.064,-0.888 0.576,-0.592 0.864,-1.4 0.864,-2.424 z"
     id="path3735" />
  <path
     d="m 141.975,11.28 c 0,-1.376 0.256,-2.584 0.768,-3.624 0.528,-1.04 1.24,-1.84 2.136,-2.4 0.896,-0.56 1.896,-0.84 3,-0.84 0.88,0 1.68,0.184 2.4,0.552 0.736,0.368 1.312,0.864 1.728,1.488 V 0.24 h 4.104 V 18 h -4.104 v -1.92 c -0.384,0.64 -0.936,1.152 -1.656,1.536 -0.704,0.384 -1.528,0.576 -2.472,0.576 -1.104,0 -2.104,-0.28 -3,-0.84 -0.896,-0.576 -1.608,-1.384 -2.136,-2.424 -0.512,-1.056 -0.768,-2.272 -0.768,-3.648 z"
     id="path3733" />
  <path
     d="m 152.007,11.304 c 0,-1.024 -0.288,-1.832 -0.864,-2.424 -0.56,-0.592 -1.248,-0.888 -2.064,-0.888 -0.816,0 -1.512,0.296 -2.088,0.888 -0.56,0.576 -0.84,1.376 -0.84,2.4 0,1.024 0.28,1.84 0.84,2.448 0.576,0.592 1.272,0.888 2.088,0.888 0.816,0 1.504,-0.296 2.064,-0.888 0.576,-0.592 0.864,-1.4 0.864,-2.424 z"
     id="path3731" />
  <path
     d="m 169.328,18.192 c -1.168,0 -2.208,-0.2 -3.12,-0.6 -0.912,-0.4 -1.632,-0.944 -2.16,-1.632 -0.528,-0.704 -0.824,-1.488 -0.888,-2.352 h 4.056 c 0.048,0.464 0.264,0.84 0.648,1.128 0.384,0.288 0.856,0.432 1.416,0.432 0.512,0 0.904,-0.096 1.176,-0.288 0.288,-0.208 0.432,-0.472 0.432,-0.792 0,-0.384 -0.2,-0.664 -0.6,-0.84 -0.4,-0.192 -1.048,-0.4 -1.944,-0.624 -0.96,-0.224 -1.76,-0.456 -2.4,-0.696 -0.64,-0.256 -1.192,-0.648 -1.656,-1.176 -0.464,-0.544 -0.696,-1.272 -0.696,-2.184 0,-0.768 0.208,-1.464 0.624,-2.088 0.432,-0.64 1.056,-1.144 1.872,-1.512 0.832,-0.368 1.816,-0.552 2.952,-0.552 1.68,0 3,0.416 3.96,1.248 0.976,0.832 1.536,1.936 1.68,3.312 h -3.792 C 170.824,8.512 170.616,8.144 170.264,7.872 169.928,7.6 169.48,7.464 168.92,7.464 c -0.48,0 -0.848,0.096 -1.104,0.288 -0.256,0.176 -0.384,0.424 -0.384,0.744 0,0.384 0.2,0.672 0.6,0.864 0.416,0.192 1.056,0.384 1.92,0.576 0.992,0.256 1.8,0.512 2.424,0.768 0.624,0.24 1.168,0.64 1.632,1.2 0.48,0.544 0.728,1.28 0.744,2.208 0,0.784 -0.224,1.488 -0.672,2.112 -0.432,0.608 -1.064,1.088 -1.896,1.44 -0.816,0.352 -1.768,0.528 -2.856,0.528 z"
     id="path4" />
  <text
     xml:space="preserve"
     style="font-style:normal;font-weight:normal;font-size:40px;line-height:1.25;font-family:sans-serif;letter-spacing:0px;word-spacing:0px;fill:#000000;fill-opacity:1;stroke:none"
     x="105.394"
     y="84.256096"
     id="text3719"><tspan
       sodipodi:role="line"
       id="tspan3717"
       x="105.394"
       y="84.256096"> </tspan></text>
  <flowRoot
     xml:space="preserve"
     id="flowRoot3721"
     style="fill:black;fill-opacity:1;stroke:none;font-family:sans-serif;font-style:normal;font-weight:normal;font-size:40px;line-height:1.25;letter-spacing:0px;word-spacing:0px"><flowRegion
       id="flowRegion3723"><rect
         id="rect3725"
         width="0.65666044"
         height="43.667919"
         x="7.8799248"
         y="-35.00938" /></flowRegion><flowPara
       id="flowPara3727"></flowPara></flowRoot>  <text
     xml:space="preserve"
     style="font-style:normal;font-weight:normal;font-size:40px;line-height:1.25;font-family:sans-serif;letter-spacing:0px;word-spacing:0px;fill:#000000;fill-opacity:1;stroke:none"
     x="100.7594"
     y="12.19528"
     id="text3749"><tspan
       sodipodi:role="line"
       id="tspan3747"
       x="100.7594"
       y="48.688492" /></text>
  <text
     xml:space="preserve"
     style="font-style:normal;font-weight:normal;font-size:18.66666667px;line-height:0.25;font-family:sans-serif;letter-spacing:0px;word-spacing:0px;fill:#000000;fill-opacity:1;stroke:none;"
     x="6.9649353"
     y="17.767229"
     id="text3768"><tspan
       sodipodi:role="line"
       id="tspan3766"
       x="6.9649353"
       y="23.814741" /></text>
  <text
     xml:space="preserve"
     style="font-style:normal;font-weight:normal;font-size:26.66666603px;line-height:0.25;font-family:sans-serif;letter-spacing:0px;word-spacing:0px;fill:#000000;fill-opacity:1;stroke:none"
     x="13.233377"
     y="13.820433"
     id="text3772"><tspan
       sodipodi:role="line"
       id="tspan3770"
       x="13.233377"
       y="24.815908" /></text>
  <g
     aria-label="Nick Vallance"
     style="font-style:normal;font-weight:normal;font-size:26.66666603px;line-height:0.25;font-family:sans-serif;letter-spacing:0px;word-spacing:0px;fill:#000000;fill-opacity:1;stroke:none"
     id="text3776">
    <path
       d="M 12.788943,19.160217 V 1.921936 h 0.375 L 24.624881,15.117249 V 1.921936 H 26.3241 V 19.160217 H 25.937381 L 14.570193,6.1289673 V 19.160217 Z"
       style="font-style:normal;font-variant:normal;font-weight:normal;font-stretch:normal;font-size:24px;font-family:'Century Gothic';-inkscape-font-specification:'Century Gothic'"
       id="path3788" />
    <path
       d="m 30.847537,1.1602173 q 0.5625,0 0.960938,0.3984375 0.398437,0.3984375 0.398437,0.9609375 0,0.5507812 -0.398437,0.9492187 -0.398438,0.3984375 -0.960938,0.3984375 -0.550781,0 -0.949219,-0.3984375 -0.398437,-0.3984375 -0.398437,-0.9492187 0,-0.5625 0.398437,-0.9609375 0.398438,-0.3984375 0.949219,-0.3984375 z m -0.820312,5.25 h 1.652343 V 19.160217 h -1.652343 z"
       style="font-style:normal;font-variant:normal;font-weight:normal;font-stretch:normal;font-size:24px;font-family:'Century Gothic';-inkscape-font-specification:'Century Gothic'"
       id="path3790" />
    <path
       d="m 47.476443,9.0586548 -1.300781,0.8085937 q -1.6875,-2.2382812 -4.605469,-2.2382812 -2.332031,0 -3.878906,1.5 -1.535156,1.4999997 -1.535156,3.6445317 0,1.394531 0.703125,2.625 0.714844,1.230468 1.945312,1.910156 1.242188,0.679687 2.777344,0.679687 2.8125,0 4.59375,-2.238281 l 1.300781,0.855469 q -0.914062,1.371094 -2.460937,2.132812 -1.535156,0.75 -3.503906,0.75 -3.023438,0 -5.015625,-1.921875 -1.992188,-1.921875 -1.992188,-4.675781 0,-1.851562 0.925781,-3.4335937 0.9375,-1.59375 2.566407,-2.484375 1.628906,-0.890625 3.644531,-0.890625 1.265625,0 2.4375,0.3867187 1.183594,0.3867188 2.003906,1.0078125 0.820313,0.6210938 1.394531,1.5820313 z"
       style="font-style:normal;font-variant:normal;font-weight:normal;font-stretch:normal;font-size:24px;font-family:'Century Gothic';-inkscape-font-specification:'Century Gothic'"
       id="path3792" />
    <path
       d="m 50.60535,1.4883423 h 1.652343 V 11.54303 l 5.894532,-5.1328127 h 2.414062 l -6.996094,6.0820317 7.40625,6.667968 h -2.320312 l -6.398438,-5.730468 v 5.730468 H 50.60535 Z"
       style="font-style:normal;font-variant:normal;font-weight:normal;font-stretch:normal;font-size:24px;font-family:'Century Gothic';-inkscape-font-specification:'Century Gothic'"
       id="path3794" />
    <path
       d="m 68.277225,1.921936 h 1.875 l 5.707031,13.324219 5.8125,-13.324219 h 1.875 l -7.5,17.238281 h -0.375 z"
       style="font-style:normal;font-variant:normal;font-weight:normal;font-stretch:normal;font-family:'Century Gothic';-inkscape-font-specification:'Century Gothic';fill:#00ffff"
       id="path3796" />
    <path
       d="M 98.898318,6.4102173 V 19.160217 h -1.617187 v -2.191406 q -1.03125,1.253906 -2.320313,1.886719 -1.277343,0.632812 -2.800781,0.632812 -2.707031,0 -4.628906,-1.957031 -1.910156,-1.96875 -1.910156,-4.78125 0,-2.7539062 1.933593,-4.7109375 1.933594,-1.9570312 4.652344,-1.9570312 1.570313,0 2.835938,0.6679687 1.277343,0.6679688 2.238281,2.0039063 v -2.34375 z m -6.5625,1.2539062 q -1.371093,0 -2.53125,0.6796875 -1.160156,0.6679688 -1.851562,1.886719 -0.679688,1.21875 -0.679688,2.578125 0,1.347656 0.691407,2.578125 0.691406,1.230469 1.851562,1.921875 1.171875,0.679687 2.507813,0.679687 1.347656,0 2.554687,-0.679687 1.207031,-0.679688 1.851563,-1.839844 0.65625,-1.160156 0.65625,-2.613281 0,-2.214844 -1.464844,-3.7031252 -1.453125,-1.4882813 -3.585938,-1.4882813 z"
       style="font-style:normal;font-variant:normal;font-weight:normal;font-stretch:normal;font-family:'Century Gothic';-inkscape-font-specification:'Century Gothic';fill:#00ffff"
       id="path3798" />
    <path
       d="m 102.35535,1.4883423 h 1.64062 V 19.160217 h -1.64062 z"
       style="font-style:normal;font-variant:normal;font-weight:normal;font-stretch:normal;font-family:'Century Gothic';-inkscape-font-specification:'Century Gothic';fill:#00ffff"
       id="path3800" />
    <path
       d="m 107.18347,1.4883423 h 1.64063 V 19.160217 h -1.64063 z"
       style="font-style:normal;font-variant:normal;font-weight:normal;font-stretch:normal;font-family:'Century Gothic';-inkscape-font-specification:'Century Gothic';fill:#00ffff"
       id="path3802" />
    <path
       d="M 124.96082,6.4102173 V 19.160217 h -1.61719 v -2.191406 q -1.03125,1.253906 -2.32031,1.886719 -1.27735,0.632812 -2.80078,0.632812 -2.70703,0 -4.62891,-1.957031 -1.91016,-1.96875 -1.91016,-4.78125 0,-2.7539062 1.9336,-4.7109375 1.93359,-1.9570312 4.65234,-1.9570312 1.57031,0 2.83594,0.6679687 1.27734,0.6679688 2.23828,2.0039063 v -2.34375 z m -6.5625,1.2539062 q -1.3711,0 -2.53125,0.6796875 -1.16016,0.6679688 -1.85156,1.886719 -0.67969,1.21875 -0.67969,2.578125 0,1.347656 0.6914,2.578125 0.69141,1.230469 1.85157,1.921875 1.17187,0.679687 2.50781,0.679687 1.34766,0 2.55469,-0.679687 1.20703,-0.679688 1.85156,-1.839844 0.65625,-1.160156 0.65625,-2.613281 0,-2.214844 -1.46484,-3.7031252 -1.45313,-1.4882813 -3.58594,-1.4882813 z"
       style="font-style:normal;font-variant:normal;font-weight:normal;font-stretch:normal;font-family:'Century Gothic';-inkscape-font-specification:'Century Gothic';fill:#00ffff"
       id="path3804" />
    <path
       d="m 128.66394,6.4102173 h 1.64063 v 2.2851562 q 0.98437,-1.3125 2.17969,-1.9570312 1.19531,-0.65625 2.60156,-0.65625 1.42969,0 2.53125,0.7265625 1.11328,0.7265625 1.64062,1.9570312 0.52735,1.2304688 0.52735,3.832031 v 6.5625 h -1.62891 v -6.082031 q 0,-2.203125 -0.1875,-2.941406 -0.29297,-1.2656252 -1.10156,-1.8984377 -0.8086,-0.6445313 -2.10938,-0.6445313 -1.48828,0 -2.67187,0.984375 -1.17188,0.984375 -1.54688,2.4375 -0.23437,0.949219 -0.23437,3.46875 v 4.675781 h -1.64063 z"
       style="font-style:normal;font-variant:normal;font-weight:normal;font-stretch:normal;font-family:'Century Gothic';-inkscape-font-specification:'Century Gothic';fill:#00ffff"
       id="path3806" />
    <path
       d="m 155.66394,9.0586548 -1.30078,0.8085937 q -1.6875,-2.2382812 -4.60547,-2.2382812 -2.33203,0 -3.8789,1.5 -1.53516,1.4999997 -1.53516,3.6445317 0,1.394531 0.70313,2.625 0.71484,1.230468 1.94531,1.910156 1.24219,0.679687 2.77734,0.679687 2.8125,0 4.59375,-2.238281 l 1.30078,0.855469 q -0.91406,1.371094 -2.46093,2.132812 -1.53516,0.75 -3.50391,0.75 -3.02344,0 -5.01563,-1.921875 -1.99218,-1.921875 -1.99218,-4.675781 0,-1.851562 0.92578,-3.4335937 0.9375,-1.59375 2.5664,-2.484375 1.62891,-0.890625 3.64454,-0.890625 1.26562,0 2.4375,0.3867187 1.18359,0.3867188 2.0039,1.0078125 0.82031,0.6210938 1.39453,1.5820313 z"
       style="font-style:normal;font-variant:normal;font-weight:normal;font-stretch:normal;font-family:'Century Gothic';-inkscape-font-specification:'Century Gothic';fill:#00ffff"
       id="path3808" />
    <path
       d="m 169.53894,14.929749 1.38282,0.726562 q -0.67969,1.335938 -1.57032,2.15625 -0.89062,0.820313 -2.0039,1.253906 -1.11328,0.421875 -2.51953,0.421875 -3.11719,0 -4.875,-2.039062 -1.75782,-2.050781 -1.75782,-4.628906 0,-2.425782 1.48828,-4.3242192 1.88672,-2.4140625 5.05079,-2.4140625 3.25781,0 5.20312,2.4726562 1.38281,1.7460935 1.40625,4.3593755 h -11.46094 q 0.0469,2.226562 1.41797,3.65625 1.3711,1.417968 3.38672,1.417968 0.97266,0 1.88672,-0.339843 0.92578,-0.339844 1.57031,-0.902344 0.64453,-0.5625 1.39453,-1.816406 z m 0,-3.433594 q -0.32812,-1.3125 -0.96093,-2.0976565 -0.6211,-0.7851562 -1.65235,-1.265625 -1.03125,-0.4804687 -2.16797,-0.4804687 -1.875,0 -3.22265,1.2070312 -0.98438,0.8789063 -1.48828,2.636719 z"
       style="font-style:normal;font-variant:normal;font-weight:normal;font-stretch:normal;font-family:'Century Gothic';-inkscape-font-specification:'Century Gothic';fill:#00ffff"
       id="path3810" />
  </g>
</svg>
